<?xml version="1.0" encoding="UTF-8"?>
<!DOCTYPE svg PUBLIC "-//W3C//DTD SVG 1.1//EN" "http://www.w3.org/Graphics/SVG/1.1/DTD/svg11.dtd">
<svg version="1.1" xmlns="http://www.w3.org/2000/svg" xmlns:xlink="http://www.w3.org/1999/xlink" x="0" y="0" width="492" height="444" viewBox="0, 0, 492, 444">
  <g id="Layer_1" transform="translate(0, -0)">
    <path d="M0,0 L492,0 L492,444 L0,444 z" fill="#484A51"/>
    <path d="M246.148,307.629 C167.458,307.629 103.667,243.838 103.667,165.148 C103.667,86.458 167.458,22.667 246.148,22.667 C324.838,22.667 388.629,86.458 388.629,165.148 C388.629,243.838 324.838,307.629 246.148,307.629 z" fill="#53585F"/>
    <path d="M242.589,231.599 L274.929,208.954 L284.256,222.275 L251.916,244.92 z" fill="#FFFFFF"/>
    <path d="M255.255,196.599 L287.596,173.954 L296.923,187.275 L264.583,209.92 z" fill="#FFFFFF"/>
    <path d="M267.922,161.599 L300.262,138.954 L309.59,152.275 L277.25,174.92 z" fill="#FFFFFF"/>
    <path d="M280.589,126.599 L312.929,103.954 L322.256,117.275 L289.916,139.92 z" fill="#FFFFFF"/>
    <path d="M244.589,126.932 L276.929,104.287 L286.256,117.608 L253.916,140.253 z" fill="#FFFFFF"/>
    <path d="M208.589,127.265 L240.929,104.621 L250.256,117.942 L217.916,140.586 z" fill="#FFFFFF"/>
    <path d="M172.589,127.599 L204.929,104.954 L214.256,118.275 L181.916,140.92 z" fill="#FFFFFF"/>
    <path d="M45.336,343.112 Q45.696,343.784 45.96,344.552 Q46.104,344.192 46.272,343.808 Q46.44,343.424 46.632,343.088 L59.952,319.496 Q60.144,319.184 60.348,319.112 Q60.552,319.04 60.888,319.04 L62.568,319.04 L62.568,353 L60.432,353 L60.432,324.056 Q60.432,323.768 60.444,323.432 Q60.456,323.096 60.48,322.76 L47.136,346.472 Q46.8,347.096 46.176,347.096 L45.792,347.096 Q45.168,347.096 44.832,346.472 L31.104,322.712 Q31.176,323.408 31.176,324.056 L31.176,353 L29.016,353 L29.016,319.04 L30.72,319.04 Q31.056,319.04 31.248,319.112 Q31.44,319.184 31.632,319.496 z" fill="#FFFFFF"/>
    <path d="M85.368,353 Q84.648,353 84.48,352.328 L84.144,349.28 Q83.16,350.24 82.188,351.008 Q81.216,351.776 80.16,352.304 Q79.104,352.832 77.88,353.108 Q76.656,353.384 75.192,353.384 Q73.968,353.384 72.816,353.024 Q71.664,352.664 70.764,351.92 Q69.864,351.176 69.324,350.012 Q68.784,348.848 68.784,347.216 Q68.784,345.704 69.648,344.408 Q70.512,343.112 72.36,342.152 Q74.208,341.192 77.1,340.616 Q79.992,340.04 84.048,339.944 L84.048,337.448 Q84.048,334.136 82.62,332.348 Q81.192,330.56 78.384,330.56 Q76.656,330.56 75.444,331.04 Q74.232,331.52 73.392,332.096 Q72.552,332.672 72.024,333.152 Q71.496,333.632 71.136,333.632 Q70.872,333.632 70.704,333.512 Q70.536,333.392 70.416,333.2 L70.008,332.504 Q71.88,330.632 73.944,329.672 Q76.008,328.712 78.624,328.712 Q80.544,328.712 81.984,329.324 Q83.424,329.936 84.372,331.076 Q85.32,332.216 85.8,333.836 Q86.28,335.456 86.28,337.448 L86.28,353 z M75.768,351.728 Q77.16,351.728 78.324,351.428 Q79.488,351.128 80.484,350.588 Q81.48,350.048 82.344,349.304 Q83.208,348.56 84.048,347.696 L84.048,341.48 Q80.64,341.576 78.168,341.996 Q75.696,342.416 74.1,343.136 Q72.504,343.856 71.748,344.852 Q70.992,345.848 70.992,347.12 Q70.992,348.32 71.388,349.196 Q71.784,350.072 72.444,350.636 Q73.104,351.2 73.968,351.464 Q74.832,351.728 75.768,351.728 z" fill="#FFFFFF"/>
    <path d="M99.672,340.784 L91.344,329.12 L93.528,329.12 Q93.864,329.12 94.032,329.264 Q94.2,329.408 94.32,329.6 L101.328,339.704 Q101.448,339.248 101.712,338.864 L108.264,329.624 Q108.408,329.408 108.576,329.264 Q108.744,329.12 109.008,329.12 L111.096,329.12 L102.768,340.664 L111.432,353 L109.248,353 Q108.912,353 108.72,352.796 Q108.528,352.592 108.408,352.4 L101.16,341.816 Q101.04,342.296 100.8,342.656 L93.888,352.4 Q93.72,352.616 93.54,352.808 Q93.36,353 93.072,353 L91.008,353 z" fill="#FFFFFF"/>
    <path d="M151.728,318.296 L151.728,320.864 Q151.728,322.016 151.488,322.724 Q151.248,323.432 151.008,323.912 L137.856,350.984 Q137.448,351.824 136.704,352.412 Q135.96,353 134.712,353 L130.416,353 L143.832,326.48 Q144.264,325.664 144.708,324.98 Q145.152,324.296 145.704,323.672 L129.12,323.672 Q128.568,323.672 128.16,323.264 Q127.752,322.856 127.752,322.304 L127.752,318.296 z" fill="#FFFFFF"/>
  </g>
</svg>
